# xmcd CD database file
#
# Track frame offsets:
#	150
#	67827
#	104012
#	149560
#	168104
#	197881
#	219428
#	264983
#	315436
#
# Disc length: 4316 seconds
#
# Revision: 0
# Processed by: cddbd v1.5.2PL0 Copyright (c) Steve Scherf et al.
# Submitted via: CDex 1.51
#
DISCID=7f10da09
DTITLE=Frank McComb - The living room
DYEAR=2012
DGENRE=Jazz
TTITLE0=Cupid's arrow
TTITLE1=Love natural
TTITLE2=Future love
TTITLE3=All you need is love
TTITLE4=Reprise
TTITLE5=Gotta find a way
TTITLE6=Do you remember love?
TTITLE7=Superstition
TTITLE8=Watching the one you love
EXTD=YEAR: 2012
EXTT0=
EXTT1=
EXTT2=
EXTT3=
EXTT4=
EXTT5=
EXTT6=
EXTT7=
EXTT8=
PLAYORDER=
